<svg width="50" height="50" viewBox="0 0 50 50" fill="none" xmlns="http://www.w3.org/2000/svg">
<path d="M17.025 25L4.5 33.155V16.845L17.025 25ZM32.975 25L45.5 33.155V16.845L32.975 25ZM31.145 26.195L25.545 29.84C25.38 29.945 25.19 30 25 30C24.81 30 24.62 29.945 24.455 29.84L18.855 26.195L5.33 35L4.545 35.51C4.79 36.92 6.02 38 7.5 38H42.5C43.98 38 45.21 36.925 45.455 35.51L44.665 35L31.145 26.195ZM25 27.805L44.665 15L45.455 14.49C45.21 13.075 43.98 12 42.5 12H7.5C6.02 12 4.79 13.08 4.545 14.49L5.33 15L25 27.805Z" fill="#F4A261"/>
</svg>
