<svg width="50" height="50" viewBox="0 0 50 50" fill="none" xmlns="http://www.w3.org/2000/svg">
<path d="M38.3928 3.57143C40.6064 3.57143 42.4991 4.35733 44.0709 5.92913C45.6427 7.50093 46.4286 9.3936 46.4286 11.6071V38.3929C46.4286 40.6064 45.6427 42.4991 44.0709 44.0709C42.4991 45.6427 40.6064 46.4286 38.3928 46.4286H33.1473V29.827H38.6998L39.5368 23.3538H33.1473V19.2243C33.1473 18.1827 33.3659 17.4014 33.803 16.8806C34.2401 16.3597 35.0911 16.0993 36.356 16.0993L39.76 16.0714V10.2958C38.5882 10.1283 36.9326 10.0446 34.7935 10.0446C32.2637 10.0446 30.2409 10.7887 28.7249 12.2768C27.2089 13.7649 26.4509 15.8668 26.4509 18.5826V23.3538H20.8705V29.827H26.4509V46.4286H11.6071C9.39358 46.4286 7.50091 45.6427 5.92911 44.0709C4.35731 42.4991 3.57141 40.6064 3.57141 38.3929V11.6071C3.57141 9.3936 4.35731 7.50093 5.92911 5.92913C7.50091 4.35733 9.39358 3.57143 11.6071 3.57143H38.3928Z" fill="#F4A261"/>
</svg>
