<svg width="50" height="50" viewBox="0 0 50 50" fill="none" xmlns="http://www.w3.org/2000/svg">
<path d="M25 19.8333C23.9781 19.8333 22.9792 20.1363 22.1296 20.7041C21.2799 21.2718 20.6177 22.0787 20.2266 23.0228C19.8356 23.9669 19.7333 25.0057 19.9326 26.008C20.132 27.0102 20.6241 27.9308 21.3466 28.6534C22.0692 29.3759 22.9898 29.868 23.9921 30.0674C24.9943 30.2667 26.0331 30.1644 26.9772 29.7734C27.9213 29.3823 28.7282 28.7201 29.2959 27.8704C29.8637 27.0208 30.1667 26.0219 30.1667 25C30.1667 24.3215 30.033 23.6496 29.7734 23.0228C29.5137 22.3959 29.1332 21.8264 28.6534 21.3466C28.1736 20.8668 27.6041 20.4863 26.9772 20.2266C26.3504 19.967 25.6785 19.8333 25 19.8333ZM45.6875 14.7292C45.6766 13.1203 45.3803 11.5262 44.8125 10.0208C44.3944 8.91928 43.7474 7.91894 42.9142 7.08579C42.0811 6.25265 41.0807 5.60565 39.9792 5.18749C38.4738 4.61971 36.8797 4.32345 35.2709 4.31249C32.5834 4.16666 31.7917 4.16666 25 4.16666C18.2084 4.16666 17.4167 4.16666 14.7292 4.31249C13.1203 4.32345 11.5262 4.61971 10.0209 5.18749C8.91931 5.60565 7.91897 6.25265 7.08582 7.08579C6.25268 7.91894 5.60568 8.91928 5.18752 10.0208C4.61974 11.5262 4.32348 13.1203 4.31252 14.7292C4.16669 17.4167 4.16669 18.2083 4.16669 25C4.16669 31.7917 4.16669 32.5833 4.31252 35.2708C4.33495 36.8853 4.6308 38.4843 5.18752 40C5.60383 41.0965 6.25029 42.091 7.08335 42.9167C7.91292 43.7548 8.91541 44.4018 10.0209 44.8125C11.5262 45.3803 13.1203 45.6765 14.7292 45.6875C17.4167 45.8333 18.2084 45.8333 25 45.8333C31.7917 45.8333 32.5834 45.8333 35.2709 45.6875C36.8797 45.6765 38.4738 45.3803 39.9792 44.8125C41.0846 44.4018 42.0871 43.7548 42.9167 42.9167C43.7498 42.091 44.3962 41.0965 44.8125 40C45.3798 38.4872 45.676 36.8864 45.6875 35.2708C45.8334 32.5833 45.8334 31.7917 45.8334 25C45.8334 18.2083 45.8334 17.4167 45.6875 14.7292ZM40.3959 31.3958C40.329 32.6815 40.0546 33.9478 39.5834 35.1458C39.1789 36.1452 38.5777 37.053 37.8153 37.8153C37.053 38.5776 36.1452 39.1789 35.1459 39.5833C33.9365 40.0283 32.6631 40.2746 31.375 40.3125C29.7292 40.3125 29.2917 40.3125 25 40.3125C20.7084 40.3125 20.2709 40.3125 18.625 40.3125C17.337 40.2746 16.0635 40.0283 14.8542 39.5833C13.8211 39.1994 12.8881 38.5869 12.125 37.7917C11.3702 37.0443 10.7872 36.1414 10.4167 35.1458C9.96993 33.9377 9.73045 32.6629 9.70835 31.375C9.70835 29.7292 9.70835 29.2917 9.70835 25C9.70835 20.7083 9.70835 20.2708 9.70835 18.625C9.73045 17.3371 9.96993 16.0622 10.4167 14.8542C10.8006 13.821 11.4131 12.8881 12.2084 12.125C12.959 11.3742 13.861 10.7919 14.8542 10.4167C16.0635 9.97167 17.337 9.72543 18.625 9.68749C20.2709 9.68749 20.7084 9.68749 25 9.68749C29.2917 9.68749 29.7292 9.68749 31.375 9.68749C32.6631 9.72543 33.9365 9.97167 35.1459 10.4167C36.179 10.8006 37.1119 11.4131 37.875 12.2083C38.6299 12.9557 39.2128 13.8586 39.5834 14.8542C40.0283 16.0635 40.2746 17.3369 40.3125 18.625C40.3125 20.2708 40.3125 20.7083 40.3125 25C40.3125 29.2917 40.4584 29.7292 40.3959 31.375V31.3958ZM37.0625 15.8958C36.8145 15.2229 36.4234 14.6117 35.9162 14.1046C35.4091 13.5975 34.798 13.2064 34.125 12.9583C33.201 12.638 32.2278 12.4829 31.25 12.5C29.625 12.5 29.1667 12.5 25 12.5C20.8334 12.5 20.375 12.5 18.75 12.5C17.7672 12.5096 16.7939 12.693 15.875 13.0417C15.2124 13.2784 14.6077 13.6536 14.1012 14.1421C13.5948 14.6306 13.1981 15.2213 12.9375 15.875C12.635 16.8028 12.4872 17.7741 12.5 18.75C12.5 20.375 12.5 20.8333 12.5 25C12.5 29.1667 12.5 29.625 12.5 31.25C12.5207 32.2316 12.7037 33.2031 13.0417 34.125C13.2897 34.7979 13.6808 35.4091 14.188 35.9162C14.6951 36.4234 15.3062 36.8144 15.9792 37.0625C16.8681 37.3894 17.8035 37.5722 18.75 37.6042C20.375 37.6042 20.8334 37.6042 25 37.6042C29.1667 37.6042 29.625 37.6042 31.25 37.6042C32.2328 37.5945 33.2061 37.4112 34.125 37.0625C34.798 36.8144 35.4091 36.4234 35.9162 35.9162C36.4234 35.4091 36.8145 34.7979 37.0625 34.125C37.4112 33.2061 37.5946 32.2328 37.6042 31.25C37.6042 29.625 37.6042 29.1667 37.6042 25C37.6042 20.8333 37.6042 20.375 37.6042 18.75C37.6048 17.7662 37.4211 16.7911 37.0625 15.875V15.8958ZM25 32.9583C23.9559 32.9583 22.922 32.7523 21.9576 32.3521C20.9933 31.9519 20.1173 31.3654 19.38 30.6261C18.6426 29.8868 18.0584 29.0094 17.6607 28.0439C17.2631 27.0785 17.0598 26.0441 17.0625 25C17.0625 23.4251 17.5298 21.8856 18.4052 20.5764C19.2806 19.2672 20.5248 18.2472 21.9802 17.6455C23.4356 17.0437 25.0368 16.8874 26.5811 17.1961C28.1255 17.5049 29.5435 18.2649 30.6556 19.38C31.7678 20.4951 32.5241 21.9151 32.8288 23.4602C33.1335 25.0053 32.9729 26.6061 32.3674 28.06C31.7619 29.5138 30.7386 30.7553 29.4271 31.6272C28.1156 32.4992 26.5749 32.9624 25 32.9583ZM33.3334 18.6042C32.8728 18.5554 32.4466 18.3379 32.1369 17.9937C31.8271 17.6494 31.6557 17.2027 31.6557 16.7396C31.6557 16.2765 31.8271 15.8297 32.1369 15.4855C32.4466 15.1412 32.8728 14.9237 33.3334 14.875C33.7939 14.9237 34.2201 15.1412 34.5298 15.4855C34.8396 15.8297 35.011 16.2765 35.011 16.7396C35.011 17.2027 34.8396 17.6494 34.5298 17.9937C34.2201 18.3379 33.7939 18.5554 33.3334 18.6042Z" fill="#F4A261"/>
</svg>
