<svg width="50" height="50" viewBox="0 0 50 50" fill="none" xmlns="http://www.w3.org/2000/svg">
<path d="M9.76037 40.2397C18.1776 48.6569 31.8224 48.6569 40.2397 40.2397C48.6569 31.8224 48.6569 18.1776 40.2397 9.76035C31.8224 1.34311 18.1776 1.34311 9.76037 9.76035C1.34485 18.1776 1.34485 31.8224 9.76037 40.2397ZM19.3207 11.5966L22.5276 14.8035C23.169 15.4448 23.3052 16.4362 22.8604 17.2276L21.6552 19.3672C21.5105 19.6238 21.4539 19.9207 21.494 20.2125C21.5342 20.5043 21.6689 20.7749 21.8776 20.9828L29.0173 28.1224C29.2254 28.3308 29.496 28.4652 29.7878 28.5051C30.0796 28.5449 30.3764 28.488 30.6328 28.3431L32.7724 27.1379C33.1574 26.921 33.6028 26.836 34.0405 26.8961C34.4783 26.9562 34.8843 27.158 35.1966 27.4707L38.4052 30.6793C38.7842 31.0591 38.9971 31.5738 38.9971 32.1103C38.9971 32.6469 38.7842 33.1616 38.4052 33.5414L36.8862 35.0603C36.0436 35.901 34.947 36.4399 33.7668 36.5936C32.5865 36.7473 31.3885 36.5071 30.3586 35.9103L30.2138 35.8276C23.9191 32.2308 18.6542 27.077 14.9242 20.8604L14.1949 19.6431C13.575 18.6117 13.3178 17.4026 13.4643 16.2082C13.6109 15.0138 14.1526 13.9027 15.0035 13.0517L16.4586 11.5966C16.6465 11.4085 16.8695 11.2593 17.1151 11.1574C17.3606 11.0556 17.6239 11.0032 17.8897 11.0032C18.1555 11.0032 18.4187 11.0556 18.6643 11.1574C18.9098 11.2593 19.1329 11.4085 19.3207 11.5966Z" fill="#F4A261"/>
</svg>
