<svg width="360" height="740" viewBox="0 0 360 740" fill="none" xmlns="http://www.w3.org/2000/svg">
<g clip-path="url(#clip0_151_12)">
<path d="M360 0H0V740H360V0Z" fill="#311961"/>
<path d="M0 -404.259C6.5 -392.897 23 -355.154 39 -336.083C55 -317.012 79 -305.25 96 -289.833C113 -274.417 128 -259 141 -243.583C154 -228.167 161 -205.441 174 -197.333C187 -189.225 204 -203.043 219 -194.935C234 -186.827 247 -171.41 264 -148.685C281 -125.96 305 -77.6543 321 -58.5833C337 -39.5123 353.5 -38.3133 360 -34.2592V740H0V-404.259Z" fill="url(#paint0_linear_151_12)"/>
<path d="M0 -247.681C11 -240.567 45 -230.188 66 -204.998C87 -179.807 106 -118.073 126 -96.5367C146 -75.0004 166 -90.0072 186 -75.7795C206 -61.5518 228 -40.0155 246 -11.1705C264 17.6745 275 72.0997 294 97.2904C313 122.481 349 132.86 360 139.974V740H0V-247.681Z" fill="url(#paint1_linear_151_12)"/>
<path d="M0 -228.139C11 -213.226 45 -164.833 66 -138.662C87 -112.49 108 -93.6276 126 -71.1105C144 -48.5933 156 -26.0762 174 -3.55904C192 18.9581 212 41.4752 234 63.9924C256 86.5095 285 112.681 306 131.544C327 150.407 351 169.565 360 177.169V740H0V-228.139Z" fill="url(#paint2_linear_151_12)"/>
<path d="M0 -71.5607C11 -61.1163 43 -40.7459 66 -8.89409C89 22.9578 112 84.0442 138 119.55C164 155.056 196 175.945 222 204.143C248 232.34 271 264.192 294 288.735C317 313.279 349 340.958 360 351.402V740H0V-71.5607Z" fill="url(#paint3_linear_151_12)"/>
<path d="M0 -52.0193C9 -36.1256 35 15.2098 54 43.3428C73 71.4759 92 99.6089 114 116.779C136 133.949 164 121.885 186 146.363C208 170.842 226 231.864 246 263.651C266 295.439 287 316.263 306 337.088C325 357.912 351 380.013 360 388.598V740H0V-52.0193Z" fill="url(#paint4_linear_151_12)"/>
<path d="M0 104.559C7.57143 119.125 29.2857 166.476 45.4286 191.953C61.5714 217.429 79.7143 235.597 96.8571 257.42C114 279.242 131.143 308.373 148.286 322.887C165.429 337.401 182.571 322.68 199.714 344.503C216.857 366.325 234 431.999 251.143 453.822C268.286 475.644 284.429 457.269 302.571 475.437C320.714 493.606 350.429 548.265 360 562.831V740H0V104.559Z" fill="url(#paint5_linear_151_12)"/>
<path d="M0 124.101C11 143.619 41 205.829 66 241.212C91 276.594 126 311.977 150 336.397C174 360.817 188 363.31 210 387.73C232 412.15 257 447.533 282 482.915C307 518.298 347 580.508 360 600.026V740H0V124.101Z" fill="url(#paint6_linear_151_12)"/>
<rect width="360" height="740" fill="black" fill-opacity="0.2"/>
</g>
<defs>
<linearGradient id="paint0_linear_151_12" x1="180" y1="-404.259" x2="180" y2="740" gradientUnits="userSpaceOnUse">
<stop stop-color="#5E39A7"/>
<stop offset="1" stop-color="#35122A"/>
</linearGradient>
<linearGradient id="paint1_linear_151_12" x1="180" y1="-247.681" x2="180" y2="740" gradientUnits="userSpaceOnUse">
<stop stop-color="#7439A7"/>
<stop offset="1" stop-color="#351223"/>
</linearGradient>
<linearGradient id="paint2_linear_151_12" x1="180" y1="-228.139" x2="180" y2="740" gradientUnits="userSpaceOnUse">
<stop stop-color="#5E39A7"/>
<stop offset="1" stop-color="#35122A"/>
</linearGradient>
<linearGradient id="paint3_linear_151_12" x1="180" y1="-71.5607" x2="180" y2="740" gradientUnits="userSpaceOnUse">
<stop stop-color="#F8E7F9"/>
<stop offset="1" stop-color="#D96D74"/>
</linearGradient>
<linearGradient id="paint4_linear_151_12" x1="180" y1="-52.0193" x2="180" y2="740" gradientUnits="userSpaceOnUse">
<stop stop-color="#F0E7F9"/>
<stop offset="1" stop-color="#D96DA0"/>
</linearGradient>
<linearGradient id="paint5_linear_151_12" x1="180" y1="104.559" x2="180" y2="740" gradientUnits="userSpaceOnUse">
<stop stop-color="#F0E7F9"/>
<stop offset="1" stop-color="#D96DA0"/>
</linearGradient>
<linearGradient id="paint6_linear_151_12" x1="180" y1="124.101" x2="180" y2="740" gradientUnits="userSpaceOnUse">
<stop stop-color="#F8E7F9"/>
<stop offset="1" stop-color="#D96D74"/>
</linearGradient>
<clipPath id="clip0_151_12">
<rect width="360" height="740" fill="white"/>
</clipPath>
</defs>
</svg>
