<svg width="1920" height="994" viewBox="0 0 1920 994" fill="none" xmlns="http://www.w3.org/2000/svg">
<g clip-path="url(#clip0_136_2)">
<path d="M1920 0H0V994H1920V0Z" fill="#311961"/>
<path d="M0 -543.019C34.6667 -527.756 122.667 -477.059 208 -451.442C293.333 -425.825 421.333 -410.025 512 -389.317C602.667 -368.608 682.667 -347.9 752 -327.192C821.333 -306.483 858.667 -275.958 928 -265.067C997.333 -254.176 1088 -272.736 1168 -261.845C1248 -250.954 1317.33 -230.246 1408 -199.72C1498.67 -169.195 1626.67 -104.309 1712 -78.6917C1797.33 -53.0747 1885.33 -51.4641 1920 -46.0185V994H0V-543.019Z" fill="url(#paint0_linear_136_2)"/>
<path d="M0 -332.695C58.6667 -323.14 240 -309.199 352 -275.362C464 -241.524 565.333 -158.601 672 -129.672C778.667 -100.744 885.333 -120.902 992 -101.79C1098.67 -82.6791 1216 -53.7505 1312 -15.0047C1408 23.7412 1466.67 96.8475 1568 130.685C1669.33 164.522 1861.33 178.463 1920 188.019V994H0V-332.695Z" fill="url(#paint1_linear_136_2)"/>
<path d="M0 -306.447C58.6667 -286.415 240 -221.411 352 -186.257C464 -151.102 576 -125.765 672 -95.5187C768 -65.2727 832 -35.0267 928 -4.78067C1024 25.4653 1130.67 55.7113 1248 85.9573C1365.33 116.203 1520 151.358 1632 176.695C1744 202.033 1872 227.767 1920 237.981V994H0V-306.447Z" fill="url(#paint2_linear_136_2)"/>
<path d="M0 -96.1235C58.6667 -82.094 229.333 -54.7317 352 -11.9469C474.667 30.8378 597.333 112.892 736 160.585C874.667 208.279 1045.33 236.337 1184 274.214C1322.67 312.09 1445.33 354.874 1568 387.842C1690.67 420.809 1861.33 457.989 1920 472.018V994H0V-96.1235Z" fill="url(#paint3_linear_136_2)"/>
<path d="M0 -69.8745C48 -48.5254 186.667 20.4305 288 58.22C389.333 96.0095 490.667 133.799 608 156.863C725.333 179.926 874.667 163.721 992 196.602C1109.33 229.483 1205.33 311.45 1312 354.148C1418.67 396.846 1530.67 424.818 1632 452.791C1733.33 480.763 1872 510.45 1920 521.981V994H0V-69.8745Z" fill="url(#paint4_linear_136_2)"/>
<path d="M0 140.449C40.381 160.014 156.19 223.617 242.286 257.839C328.381 292.06 425.143 316.465 516.571 345.778C608 375.09 699.429 414.221 790.857 433.716C882.286 453.212 973.714 433.438 1065.14 462.751C1156.57 492.064 1248 580.28 1339.43 609.593C1430.86 638.906 1516.95 614.224 1613.71 638.628C1710.48 663.032 1868.95 736.454 1920 756.019V994H0V140.449Z" fill="url(#paint5_linear_136_2)"/>
<path d="M0 166.697C58.6667 192.916 218.667 276.479 352 324.006C485.333 371.534 672 419.061 800 451.863C928 484.665 1002.67 488.014 1120 520.816C1237.33 553.618 1370.67 601.145 1504 648.673C1637.33 696.2 1850.67 779.763 1920 805.982V994H0V166.697Z" fill="url(#paint6_linear_136_2)"/>
</g>
<defs>
<linearGradient id="paint0_linear_136_2" x1="960" y1="-543.019" x2="960" y2="994" gradientUnits="userSpaceOnUse">
<stop stop-color="#5E39A7"/>
<stop offset="1" stop-color="#35122A"/>
</linearGradient>
<linearGradient id="paint1_linear_136_2" x1="960" y1="-332.695" x2="960" y2="994" gradientUnits="userSpaceOnUse">
<stop stop-color="#7439A7"/>
<stop offset="1" stop-color="#351223"/>
</linearGradient>
<linearGradient id="paint2_linear_136_2" x1="960" y1="-306.447" x2="960" y2="994" gradientUnits="userSpaceOnUse">
<stop stop-color="#5E39A7"/>
<stop offset="1" stop-color="#35122A"/>
</linearGradient>
<linearGradient id="paint3_linear_136_2" x1="960" y1="-96.1235" x2="960" y2="994" gradientUnits="userSpaceOnUse">
<stop stop-color="#F8E7F9"/>
<stop offset="1" stop-color="#D96D74"/>
</linearGradient>
<linearGradient id="paint4_linear_136_2" x1="960" y1="-69.8745" x2="960" y2="994" gradientUnits="userSpaceOnUse">
<stop stop-color="#F0E7F9"/>
<stop offset="1" stop-color="#D96DA0"/>
</linearGradient>
<linearGradient id="paint5_linear_136_2" x1="960" y1="140.449" x2="960" y2="994" gradientUnits="userSpaceOnUse">
<stop stop-color="#F0E7F9"/>
<stop offset="1" stop-color="#D96DA0"/>
</linearGradient>
<linearGradient id="paint6_linear_136_2" x1="960" y1="166.697" x2="960" y2="994" gradientUnits="userSpaceOnUse">
<stop stop-color="#F8E7F9"/>
<stop offset="1" stop-color="#D96D74"/>
</linearGradient>
<clipPath id="clip0_136_2">
<rect width="1920" height="994" fill="white"/>
</clipPath>
</defs>
</svg>
